<?xml version="1.0" standalone="no"?>
<!DOCTYPE svg PUBLIC "-//W3C//DTD SVG 20010904//EN"
 "http://www.w3.org/TR/2001/REC-SVG-20010904/DTD/svg10.dtd">
<svg version="1.0" xmlns="http://www.w3.org/2000/svg"
 width="1080.000000pt" height="835.000000pt" viewBox="0 0 1080.000000 835.000000"
 preserveAspectRatio="xMidYMid meet">

<g transform="translate(0.000000,835.000000) scale(0.100000,-0.100000)"
fill="#000000" stroke="none">
<path d="M6140 8055 c-251 -89 -448 -201 -601 -343 -339 -315 -450 -777 -314
-1310 54 -216 113 -350 164 -377 34 -17 68 -10 241 50 308 107 575 287 731
495 64 85 140 234 174 340 78 250 71 568 -20 868 -42 137 -105 280 -133 302
-39 31 -101 25 -242 -25z m153 -320 c54 -172 71 -278 71 -450 0 -119 -5 -168
-22 -237 -65 -264 -217 -461 -476 -617 -91 -55 -244 -126 -253 -117 -3 2 79
154 181 336 102 182 186 339 186 350 0 33 -12 52 -43 65 -65 27 -68 22 -272
-341 -103 -184 -191 -336 -195 -339 -10 -6 -30 63 -56 185 -28 131 -26 396 4
514 73 288 266 513 572 666 108 54 253 111 261 102 4 -4 23 -56 42 -117z"/>
<path d="M4425 6650 c-81 -13 -249 -68 -279 -91 -41 -32 -50 -79 -31 -146 46
-158 123 -291 225 -387 187 -176 446 -214 743 -106 154 56 166 100 81 302 -86
207 -242 355 -434 412 -67 20 -224 28 -305 16z m277 -240 c77 -29 143 -85 198
-167 56 -84 70 -121 49 -134 -27 -16 -155 -31 -222 -26 -75 7 -156 39 -218 87
-63 50 -166 216 -146 236 3 3 38 12 79 19 87 17 193 11 260 -15z"/>
<path d="M5220 5529 c-553 -63 -1078 -314 -1484 -709 -402 -391 -652 -868
-747 -1424 -27 -154 -37 -504 -20 -668 48 -465 220 -902 505 -1283 116 -155
346 -385 501 -501 339 -253 710 -412 1141 -486 175 -30 587 -33 764 -5 273 43
510 117 755 237 275 135 479 281 695 500 389 392 627 868 715 1427 22 140 30
443 16 599 -53 573 -302 1121 -698 1535 -413 430 -951 702 -1533 774 -135 16
-480 19 -610 4z m456 -1350 c253 -35 505 -161 686 -342 365 -365 459 -928 230
-1382 -115 -229 -318 -433 -547 -547 -509 -255 -1146 -104 -1490 354 -470 625
-233 1520 485 1829 200 86 425 118 636 88z"/>
</g>
</svg>
